External Loads File
version=1
nRows=69
nColumns=13
Range=5.000000e-03-10 seconds
endheader
time 	forceRightX 	forceRightY 	forceRightZ 	pointRightX 	pointRightY 	pointRightZ 	forceLeftX 	forceLeftY 	forceLeftZ 	pointLeftX 	pointLeftY 	pointLeftZ 		
5.005000 134.600809 396.849064 -0.000000 0.134065 0.153586 -0.100122 -34.200181 11.883509 -0.000000 0.243757 0.482679 -0.342520
5.010000 125.417775 368.351819 -0.000000 0.129467 0.155588 -0.100024 -33.323280 21.790785 -0.000000 0.248358 0.480847 -0.342497
5.015000 116.633963 340.953900 -0.000000 0.124822 0.157874 -0.099970 -32.239758 32.374386 -0.000000 0.252665 0.478645 -0.342757
5.020000 108.300334 314.502149 -0.000000 0.120175 0.160322 -0.099944 -30.914977 43.697917 -0.000000 0.256849 0.476346 -0.342987
5.025000 100.533431 288.727932 -0.000000 0.115506 0.163067 -0.099746 -29.342043 55.811229 -0.000000 0.260730 0.473670 -0.342990
5.030000 93.497182 263.190052 -0.000000 0.110764 0.166023 -0.099783 -27.534428 68.768438 -0.000000 0.264590 0.470747 -0.343207
5.035000 86.915919 237.449794 -0.000000 0.106006 0.169297 -0.099791 -25.619333 82.596478 -0.000000 0.268266 0.467611 -0.343270
5.040000 80.565206 211.025037 -0.000000 0.101342 0.172770 -0.099800 -23.748065 97.339620 -0.000000 0.271826 0.464192 -0.343523
5.045000 74.531711 183.442812 -0.000000 0.096515 0.176593 -0.099901 -21.906016 113.063759 -0.000000 0.275427 0.460332 -0.343954
5.050000 68.299385 154.704959 -0.000000 0.091681 0.180693 -0.099965 -20.360685 129.724235 -0.000000 0.278838 0.456364 -0.343968
5.055000 61.807484 124.920529 -0.000000 0.086941 0.185068 -0.100109 -19.169655 147.252608 -0.000000 0.282178 0.452262 -0.344245
5.060000 54.992303 94.417865 -0.000000 0.082261 0.189611 -0.100252 -18.326799 165.487387 -0.000000 0.285457 0.447884 -0.344461
5.065000 47.721277 63.713193 -0.000000 0.077774 0.194315 -0.100295 -17.944639 184.187397 -0.000000 0.288609 0.443386 -0.344746
5.070000 39.999925 33.358598 -0.000000 0.073631 0.199258 -0.100602 -18.017455 203.129138 -0.000000 0.291650 0.438623 -0.345015
5.075000 31.844082 3.992036 -0.000000 0.069745 0.204192 -0.100588 -18.688354 222.117835 -0.000000 0.294578 0.433765 -0.345225
5.080000 23.338345 -23.751571 -0.000000 0.066249 0.209323 -0.100782 -19.900931 241.008204 -0.000000 0.297424 0.428702 -0.345697
5.085000 14.617796 -49.223813 -0.000000 0.063132 0.214341 -0.100937 -21.818734 259.654825 -0.000000 0.300308 0.423451 -0.345373
5.090000 5.878158 -71.915078 -0.000000 0.060403 0.219523 -0.101010 -24.473475 277.957472 -0.000000 0.302923 0.418079 -0.345990
5.095000 -2.656475 -91.526023 -0.000000 0.058002 0.224684 -0.100897 -27.964185 295.851764 -0.000000 0.305472 0.412666 -0.346113
5.100000 -10.865428 -108.011419 -0.000000 0.055939 0.229896 -0.101063 -32.166797 313.332564 -0.000000 0.307901 0.407082 -0.346180
5.105000 -18.729735 -121.534913 -0.000000 0.054033 0.235113 -0.101096 -36.929327 330.443249 -0.000000 0.310240 0.401322 -0.346241
5.110000 -26.211720 -132.404801 -0.000000 0.052266 0.240565 -0.101196 -42.334835 347.210002 -0.000000 0.312445 0.395772 -0.346310
5.115000 -33.522757 -140.926446 -0.000000 0.050637 0.245915 -0.101216 -47.855398 363.680728 -0.000000 0.314557 0.389706 -0.346279
5.120000 -40.654585 -147.397382 -0.000000 0.049177 0.251484 -0.101288 -53.498561 379.788162 -0.000000 0.316514 0.383577 -0.346265
5.125000 -47.743827 -151.967225 -0.000000 0.047960 0.257283 -0.101350 -58.777271 395.523457 -0.000000 0.318364 0.377071 -0.346349
5.130000 -54.400930 -154.823820 -0.000000 0.046683 0.262972 -0.101408 -64.439414 410.731271 -0.000000 0.320110 0.370658 -0.346512
5.135000 -60.561772 -155.987044 -0.000000 0.045684 0.268835 -0.101499 -70.290086 425.460885 -0.000000 0.321664 0.364234 -0.346534
5.140000 -66.156514 -155.431191 -0.000000 0.044857 0.274943 -0.101533 -76.033507 439.891178 -0.000000 0.323124 0.357716 -0.346665
5.145000 -70.825684 -153.260343 -0.000000 0.044109 0.280997 -0.101639 -82.120795 454.165392 -0.000000 0.324415 0.351123 -0.346797
5.150000 -74.571729 -149.490188 -0.000000 0.043627 0.287342 -0.101721 -87.938874 468.605977 -0.000000 0.325536 0.344376 -0.346894
5.155000 -77.044285 -144.406767 -0.000000 0.043204 0.293684 -0.101840 -93.971980 483.234546 -0.000000 0.326523 0.337701 -0.347230
5.160000 -78.325757 -138.169654 -0.000000 0.042915 0.300237 -0.102036 -99.549507 498.212392 -0.000000 0.327226 0.330997 -0.347748
5.165000 -78.444514 -130.989654 -0.000000 0.042841 0.306949 -0.102264 -104.346805 513.666094 -0.000000 0.328028 0.324182 -0.347476
5.170000 -77.316814 -123.150281 -0.000000 0.042880 0.313676 -0.102520 -108.708624 529.648559 -0.000000 0.328462 0.317366 -0.347454
5.175000 -75.058389 -114.802200 -0.000000 0.043167 0.320488 -0.102836 -112.441643 546.348103 -0.000000 0.328657 0.310557 -0.347512
5.180000 -71.781507 -106.061262 -0.000000 0.043557 0.327332 -0.103173 -115.500227 563.918245 -0.000000 0.328745 0.303691 -0.347874
5.185000 -67.514460 -97.067598 -0.000000 0.044245 0.334011 -0.103348 -118.428801 582.378836 -0.000000 0.328567 0.296879 -0.347860
5.190000 -62.463837 -87.819717 -0.000000 0.045201 0.340713 -0.103443 -120.859884 601.911471 -0.000000 0.328177 0.290125 -0.347807
5.195000 -56.746935 -78.373463 -0.000000 0.046337 0.347327 -0.103492 -122.974982 622.543515 -0.000000 0.327552 0.283421 -0.347749
5.200000 -50.609746 -68.706808 -0.000000 0.047724 0.354043 -0.103571 -124.140939 644.440683 -0.000000 0.326670 0.276692 -0.347712
5.205000 -44.158436 -58.921914 -0.000000 0.049355 0.360605 -0.103624 -124.888865 667.561160 -0.000000 0.325511 0.269975 -0.347661
5.210000 -37.573082 -49.097660 -0.000000 0.051267 0.367267 -0.103497 -125.013921 692.051087 -0.000000 0.324121 0.263433 -0.347602
5.215000 -30.934565 -39.440480 -0.000000 0.052312 0.373674 -0.104225 -125.645870 717.853598 -0.000000 0.322438 0.256822 -0.347420
5.220000 -24.553751 -30.033638 -0.000000 0.055402 0.380246 -0.103702 -124.146032 745.587880 -0.000000 0.320558 0.250400 -0.347310
5.225000 -18.473078 -21.193545 -0.000000 0.057895 0.386655 -0.103746 -122.982602 774.981733 -0.000000 0.318363 0.243989 -0.347175
5.230000 -12.917004 -13.087738 -0.000000 0.060526 0.392913 -0.103805 -121.781050 806.277151 -0.000000 0.315907 0.237637 -0.347070
5.235000 -8.060701 -5.900705 -0.000000 0.062832 0.399034 -0.104167 -121.688934 839.495644 -0.000000 0.313245 0.231500 -0.346922
5.240000 -4.059842 0.249616 -0.000000 0.065980 0.405185 -0.104287 -120.409950 875.104367 -0.000000 0.310360 0.225421 -0.346678
5.245000 -0.958173 5.279685 -0.000000 0.070162 0.411277 -0.103926 -117.260225 913.040343 -0.000000 0.307233 0.219382 -0.346520
5.250000 1.196511 9.224902 -0.000000 0.073294 0.417052 -0.104405 -115.949781 952.287741 -0.000000 0.303803 0.213503 -0.346640
5.255000 2.435366 12.221268 -0.000000 0.077423 0.422729 -0.104333 -112.106846 992.562556 -0.000000 0.300236 0.207775 -0.346407
5.260000 2.804949 14.447212 -0.000000 0.081796 0.428285 -0.104304 -106.459487 1032.792471 -0.000000 0.296397 0.202284 -0.346202
5.265000 2.448028 16.083220 -0.000000 0.087512 0.433749 -0.104076 -95.652352 1072.271545 -0.000000 0.292382 0.196855 -0.345982
5.270000 1.361698 17.316034 -0.000000 0.091498 0.438774 -0.104398 -87.810606 1109.193401 -0.000000 0.288137 0.191697 -0.345740
5.275000 -0.226327 18.261895 -0.000000 0.096375 0.443764 -0.104575 -75.385200 1143.154738 -0.000000 0.283683 0.186694 -0.345571
5.280000 -2.261233 19.011204 -0.000000 0.101061 0.448753 -0.104868 -60.984243 1172.867121 -0.000000 0.278991 0.181883 -0.345402
5.285000 -4.647784 19.583135 -0.000000 0.106436 0.453255 -0.105026 -43.437839 1197.410005 -0.000000 0.274155 0.177241 -0.345281
5.290000 -7.272351 19.943134 -0.000000 0.113245 0.457624 -0.104421 -19.759895 1215.947244 -0.000000 0.269110 0.172854 -0.345202
5.295000 -10.261257 19.932486 -0.000000 0.118182 0.461884 -0.104812 -0.835486 1227.594757 -0.000000 0.263995 0.168721 -0.345330
5.300000 -13.437179 19.517635 -0.000000 0.123956 0.465863 -0.105060 21.380821 1232.065182 -0.000000 0.258710 0.164688 -0.345262
5.305000 -16.827546 18.638320 -0.000000 0.129242 0.469784 -0.105291 41.762938 1229.065998 -0.000000 0.253328 0.160990 -0.345228
5.310000 -20.286405 17.417805 -0.000000 0.135600 0.473474 -0.105225 64.696450 1218.212975 -0.000000 0.247878 0.157578 -0.345170
5.315000 -23.783126 15.917866 -0.000000 0.141657 0.476873 -0.105020 85.287730 1199.546200 -0.000000 0.242361 0.154358 -0.345149
5.320000 -27.195238 14.306836 -0.000000 0.147544 0.480122 -0.105276 103.764487 1173.150697 -0.000000 0.236766 0.151398 -0.345158
5.325000 -30.405886 12.773359 -0.000000 0.153448 0.483003 -0.105698 119.666441 1139.355209 -0.000000 0.231202 0.148704 -0.345090
5.330000 -33.298401 11.538179 -0.000000 0.159273 0.485878 -0.105686 132.623135 1098.778968 -0.000000 0.225650 0.146265 -0.345095
5.335000 -35.758379 10.914260 -0.000000 0.165526 0.488332 -0.106096 144.128383 1052.118047 -0.000000 0.219992 0.144171 -0.345143
5.340000 -37.746216 11.111579 -0.000000 0.171633 0.490601 -0.106308 152.049707 1000.699848 -0.000000 0.214420 0.142244 -0.345118
5.345000 -39.240297 12.382813 -0.000000 0.177505 0.492526 -0.106545 156.581684 945.576763 -0.000000 0.208794 0.140567 -0.345132
